<?xml version="1.0" encoding="UTF-8"?>
<svg version="1.1" xmlns="http://www.w3.org/2000/svg" width="768" height="768">
<path d="M0 0 C1.18339767 -0.00307895 1.18339767 -0.00307895 2.39070237 -0.0062201 C5.02646076 -0.01186115 7.66216642 -0.01043644 10.29792976 -0.00901413 C12.21003851 -0.01159944 14.12214673 -0.01461306 16.03425419 -0.01801753 C21.28316288 -0.02607151 26.53205787 -0.02787621 31.780972 -0.028615 C37.44449065 -0.03046838 43.10800224 -0.03801721 48.7715168 -0.04475021 C61.15408719 -0.05832333 73.53665434 -0.06435684 85.91923094 -0.06876087 C93.65501378 -0.07152538 101.39079538 -0.07576315 109.12657738 -0.08026505 C130.55560631 -0.09245706 151.98463361 -0.10279141 173.41366577 -0.10614014 C174.79864572 -0.10636177 176.18362566 -0.10658355 177.56860561 -0.10680549 C178.95685586 -0.10702613 180.34510611 -0.10724661 181.73335636 -0.10746694 C184.51823735 -0.10790948 187.30311835 -0.1083566 190.08799934 -0.10880661 C190.77848444 -0.108916 191.46896954 -0.10902539 192.18037843 -0.1091381 C214.55445434 -0.11276633 236.92849781 -0.12867818 259.3025613 -0.15199697 C282.98013256 -0.176629 306.65767984 -0.19030786 330.33526528 -0.19150805 C343.23322712 -0.19242355 356.13114649 -0.1981442 369.0290966 -0.21632767 C380.0146978 -0.23176076 391.00024338 -0.23683024 401.98585336 -0.22858956 C407.58601769 -0.22469425 413.18607013 -0.2255578 418.78622055 -0.23964691 C423.92368235 -0.25245317 429.06094897 -0.25112971 434.19841076 -0.2390562 C436.04639541 -0.23711077 437.8943942 -0.24012352 439.74235903 -0.24890056 C454.92637658 -0.3163899 469.53380366 1.37699367 484.24131966 5.31892776 C485.01588509 5.52614456 485.79045052 5.73336136 486.58848763 5.94685745 C523.30774256 16.26466462 555.26633364 39.66333626 577.80381966 70.13142776 C578.22808235 70.70070999 578.65234505 71.26999222 579.08946419 71.85652542 C597.4786876 96.88570289 610.01273964 129.97574592 609.93524742 161.27796268 C609.93832637 162.45331328 609.93832637 162.45331328 609.94146752 163.65240833 C609.94710802 166.26992731 609.94568393 168.88739319 609.94426155 171.50491714 C609.94684689 173.40393881 609.94986053 175.30295992 609.95326495 177.20198029 C609.96131859 182.41475366 609.96312362 187.62751324 609.96386242 192.8402921 C609.96571587 198.46497473 609.97326477 204.08965025 609.97999763 209.71432877 C609.99357077 222.01225825 609.99960434 234.31018447 610.00400829 246.6081202 C610.00677294 254.29164782 610.01101076 261.97517418 610.01551247 269.65870094 C610.02770476 290.94446913 610.03803888 312.230236 610.04138756 333.51600742 C610.04160919 334.8917405 610.04183097 336.26747359 610.04205291 337.64320667 C610.04227355 339.02218388 610.04249403 340.4011611 610.04271436 341.78013831 C610.0431569 344.54640472 610.04360402 347.31267113 610.04405403 350.07893753 C610.04416342 350.76480734 610.04427281 351.45067715 610.04438552 352.1573309 C610.04801328 374.37891171 610.06392315 396.60045984 610.0872444 418.82202815 C610.11188084 442.33998339 610.1255555 465.85791333 610.12675548 489.37588376 C610.12767076 502.18612818 610.13338599 514.99632982 610.15157509 527.80656242 C610.16701404 538.71820757 610.17207426 549.62979672 610.16383699 560.54145072 C610.15994366 566.10325917 610.16079536 571.66495499 610.17489433 577.22674942 C610.18771275 582.33033952 610.18636668 587.43373325 610.17430362 592.53732338 C610.17236026 594.37186697 610.17536112 596.20642485 610.18414798 598.04094843 C610.25543134 613.94591808 608.6440614 629.52759613 604.05381966 644.81892776 C603.79705452 645.69065628 603.54028938 646.5623848 603.27574348 647.46052933 C600.77534455 655.67537383 597.5934019 663.43431444 593.80381966 671.13142776 C593.46479622 671.82719925 593.12577278 672.52297073 592.77647591 673.2398262 C572.45223846 714.50249509 536.33556754 745.64150685 492.80381966 760.44392776 C478.60906674 765.07452835 463.61339333 768.29667575 448.6500473 768.26564884 C447.86569065 768.26800107 447.08133401 768.2703533 446.27320898 768.27277681 C443.65297642 768.27941751 441.03279402 768.27901009 438.41255379 768.27859879 C436.51154526 768.2819005 434.61053742 768.28562672 432.70953047 768.28974026 C427.49114904 768.29973367 422.27277912 768.30347278 417.05438948 768.30612957 C411.42351324 768.31004062 405.79264604 768.31961849 400.16177559 768.32834244 C386.5645879 768.34808578 372.96739949 768.35817103 359.37020105 768.36707023 C352.96052689 768.37145721 346.55085355 768.37682301 340.14118004 768.3820591 C318.82196317 768.39907036 297.50274748 768.41358756 276.18352509 768.42080784 C274.80555673 768.42128259 273.42758837 768.42175848 272.04962001 768.4222355 C271.02464869 768.42259006 271.02464869 768.42259006 269.97897088 768.42295179 C266.51726682 768.42415292 263.05556277 768.42536839 259.59385872 768.42659378 C258.90688634 768.42683393 258.21991396 768.42707408 257.51212424 768.42732151 C235.26300043 768.43520595 213.01393008 768.45862042 190.76482959 768.49114972 C167.21343554 768.52551981 143.66208423 768.5451646 120.1106621 768.54845208 C107.28409777 768.55061284 94.45761198 768.5592977 81.63107109 768.58491325 C70.70339828 768.60668669 59.77582309 768.61463814 48.84813105 768.60494647 C43.27984094 768.6004208 37.71175198 768.60218643 32.14348984 768.62170792 C27.03044225 768.63947738 21.9177405 768.63823152 16.80468853 768.62281062 C14.97008919 768.62045526 13.13546502 768.62464828 11.30090337 768.63663927 C-27.74486387 768.87572079 -67.85251758 755.28250002 -97.19618034 729.13142776 C-98.03278191 728.40310745 -98.86938347 727.67478714 -99.73133659 726.92439651 C-102.25581479 724.69645672 -104.73254734 722.42637252 -107.19618034 720.13142776 C-107.98508659 719.4082637 -108.77399284 718.68509964 -109.58680534 717.94002151 C-130.41798573 698.0832028 -144.45252204 671.98474792 -152.50868034 644.56892776 C-152.73918083 643.79178421 -152.96968132 643.01464066 -153.20716667 642.2139473 C-157.4174755 627.02096361 -158.63955109 612.08525145 -158.57713127 596.40353775 C-158.58059673 594.47938426 -158.58536721 592.55523276 -158.591313 590.63108534 C-158.60373075 585.39524674 -158.59769506 580.15957412 -158.58835435 574.92373526 C-158.58152598 569.25695767 -158.59206378 563.59020728 -158.60029411 557.92343521 C-158.6135937 546.84229061 -158.6107705 535.76120716 -158.60205619 524.68006022 C-158.59526481 515.66891977 -158.5943692 506.6577964 -158.59762764 497.64665413 C-158.59831719 495.71856345 -158.59831719 495.71856345 -158.59902067 493.75152145 C-158.5999799 491.13977595 -158.60095254 488.52803046 -158.60193844 485.91628497 C-158.61023812 462.15504195 -158.60164922 438.39383587 -158.58591065 414.63259873 C-158.57167728 392.97927719 -158.57294809 371.3260086 -158.58729362 349.67268753 C-158.60338671 325.30058168 -158.60965582 300.92851184 -158.60045683 276.55640024 C-158.59950125 273.95427255 -158.59855814 271.35214486 -158.59762764 268.75001717 C-158.59716481 267.46992509 -158.59670199 266.18983301 -158.59622514 264.87095027 C-158.59364178 255.87776764 -158.59799213 246.88460388 -158.6050663 237.89142418 C-158.61350623 226.92145679 -158.61114896 215.95155375 -158.59522407 204.98159368 C-158.5873746 199.3913682 -158.58419266 193.80124976 -158.59417152 188.21102524 C-158.60318834 183.08191922 -158.59807192 177.95301827 -158.58223887 172.82393055 C-158.57892036 170.9802686 -158.58051798 169.13658889 -158.58786623 167.2929386 C-158.64555035 151.60192101 -157.27482724 136.02703981 -152.44618034 121.00642776 C-152.18869011 120.18352249 -151.93119987 119.36061722 -151.66590691 118.51277542 C-145.33574975 98.76618073 -136.38254406 80.23590524 -123.19618034 64.13142776 C-122.76160515 63.59678909 -122.32702995 63.06215042 -121.87928581 62.51131058 C-108.47502875 46.08335787 -93.39075593 33.00652166 -75.19618034 22.13142776 C-74.09532097 21.46498245 -72.99446159 20.79853714 -71.86024284 20.11189651 C-50.66525967 7.80230483 -24.60122982 -0.06047177 0 0 Z " fill="#FEFEFE" transform="translate(158.19618034362793,-0.13142776489257813)"/>
<path d="M0 0 C0.86700465 -0.11760943 1.7340093 -0.23521886 2.62728683 -0.35639221 C42.88757731 -5.53581007 85.59164536 -8.61726972 119.57767477 16.7482086 C138.98378304 31.75897192 156.29773336 49.46407558 173.28743901 67.09772599 C179.83762305 73.88913209 186.48521178 80.56665801 193.21212101 87.18241692 C193.69719393 87.6597673 194.18226686 88.13711768 194.68203896 88.62893323 C196.65328713 90.56867329 198.62489097 92.50805065 200.59708089 94.44683321 C218.93906392 112.48184788 236.97321402 130.79813778 254.87757304 149.26654162 C270.64129369 165.52310075 286.64895171 181.49402466 302.90074825 197.26234627 C321.33735549 215.15227675 339.59133283 233.20193966 357.597498 251.52580822 C359.53175693 253.49332574 361.46640404 255.46046093 363.40120792 257.42744255 C363.87713681 257.91158382 364.35306569 258.3957251 364.84341666 258.89453732 C371.90252386 266.06985347 379.074193 273.11191288 386.31882191 280.10051537 C452.65590637 344.29060647 452.65590637 344.29060647 454.061007 395.09840498 C454.27755604 413.3218315 453.01914359 431.58278318 450.54412842 449.63493347 C450.4424139 450.41891957 450.34069938 451.20290566 450.2359026 452.01064891 C448.72426935 461.98611041 444.35179385 470.81989271 436.1534338 476.94594002 C410.19277971 492.75568666 358.6869441 489.28117247 330.48109913 483.4492383 C296.39487638 474.9783915 268.25563488 440.41386041 244.85348131 416.19310131 C238.29118961 409.40777021 231.63502954 402.7317629 224.90281582 396.11558914 C224.41753668 395.63838388 223.93225753 395.16117862 223.43227296 394.6695126 C221.4602368 392.73037818 219.48787682 390.79157412 217.51496918 388.85332634 C199.16024909 370.8172463 181.105642 352.50593528 163.17647872 334.04785379 C147.39076987 317.8002039 131.36296695 301.83594618 115.09435177 286.07216072 C96.64167853 268.19039841 78.3740922 250.14652462 60.35481811 231.82734782 C58.41885219 229.86006842 56.48247318 227.89319637 54.54591274 225.92650223 C54.06954436 225.44242838 53.59317598 224.95835453 53.10237219 224.45961177 C46.03701972 217.28576629 38.85741654 210.24774069 31.60317898 203.26428223 C-34.82759691 139.11521315 -34.82759691 139.11521315 -36.32921402 87.96751426 C-37.17350273 25.87655869 -37.17350273 25.87655869 -23.47109723 9.72765642 C-16.99151666 3.63190022 -8.63263785 1.1076135 0 0 Z " fill="#FD415E" transform="translate(175.08484745025635,142.3704662322998)"/>
<path d="M0 0 C25.51286615 -0.09350301 51.02570657 -0.16400853 76.53870964 -0.20724869 C88.38523975 -0.22786082 100.23166329 -0.25595575 112.078125 -0.30175781 C122.4052917 -0.34166673 132.73238121 -0.36744262 143.05962288 -0.37635398 C148.52621335 -0.38156182 153.99258303 -0.39377428 159.45910263 -0.42292023 C164.60876327 -0.45015325 169.75811301 -0.45842901 174.90783882 -0.45243073 C176.79357279 -0.45352743 178.67931759 -0.46143411 180.56498909 -0.4768219 C192.30066254 -0.56785864 203.38452281 -0.56435154 212.41184044 8.09389877 C220.96197398 18.35572664 220.83552227 28.91287568 220.68115234 41.53808594 C220.67945718 43.49056953 220.68041521 45.44305695 220.68380737 47.39553833 C220.68551996 52.66359517 220.65038966 57.93082249 220.60836363 63.19868755 C220.57070624 68.71593135 220.56731946 74.23319683 220.56021118 79.75054932 C220.54160635 90.18387588 220.49242842 100.61682257 220.43211424 111.04998231 C220.36491316 122.93389847 220.33202593 134.81783333 220.30194163 146.70189238 C220.23932549 171.13480503 220.13387549 195.56738117 220 220 C217.68333198 217.74859585 216.01507846 215.59660974 214.35546875 212.81640625 C213.85088135 211.98157715 213.34629395 211.14674805 212.82641602 210.28662109 C212.28557373 209.38766113 211.74473145 208.48870117 211.1875 207.5625 C204.56151211 196.71453618 197.43169758 186.30821863 190 176 C189.4210498 175.19288574 188.84209961 174.38577148 188.24560547 173.55419922 C180.39655346 162.63825555 172.16801735 152.12857538 163.52636719 141.83056641 C161.42330176 139.30836797 159.37017503 136.74677909 157.3125 134.1875 C153.31409901 129.28815577 149.08192427 124.64500879 144.7734375 120.01953125 C142.72237565 117.811242 140.74287839 115.55172659 138.77563477 113.26855469 C135.26695519 109.25308429 131.59215215 105.44694955 127.81640625 101.68359375 C126.82760719 100.6933596 126.82760719 100.6933596 125.8188324 99.68312073 C124.43603165 98.29964494 123.05198924 96.91740917 121.66674805 95.53637695 C119.56769657 93.44268331 117.4740406 91.34370126 115.38085938 89.24414062 C114.02636214 87.89030429 112.67155469 86.53677825 111.31640625 85.18359375 C110.70156876 84.56673203 110.08673126 83.9498703 109.45326233 83.3143158 C105.12950156 79.01336748 100.62068135 74.97820214 96 71 C94.80873691 69.95444396 93.61845802 68.90776417 92.4296875 67.859375 C84.75129643 61.12835261 76.92777737 54.66771101 68.83984375 48.43652344 C66.96642596 46.97378587 65.12252427 45.47950739 63.28125 43.9765625 C53.31406335 35.92211017 42.8486178 28.71764201 32.1875 21.625 C31.48434662 21.15677826 30.78119324 20.68855652 30.05673218 20.20614624 C21.99568483 14.84923491 13.88045496 9.6280084 5.56762695 4.66943359 C3.36723037 3.23876783 1.79785864 1.87320376 0 0 Z " fill="#FD415E" transform="translate(404,144)"/>
<path d="M0 0 C2.49113339 2.40862606 4.19832276 4.77084738 5.96875 7.76171875 C6.53432617 8.70797119 7.09990234 9.65422363 7.68261719 10.62915039 C8.28235352 11.63840576 8.88208984 12.64766113 9.5 13.6875 C14.95262022 22.75286897 20.60229486 31.58964464 26.72949219 40.21191406 C27.9761753 41.96646961 29.21161446 43.72848563 30.4453125 45.4921875 C45.68951881 67.17678743 62.42439325 87.78494688 80.44140625 107.22265625 C82.70641454 109.6813141 84.91874448 112.17634928 87.125 114.6875 C91.45143428 119.5068192 95.9923107 124.10104843 100.5625 128.6875 C101.27100098 129.40059326 101.97950195 130.11368652 102.70947266 130.84838867 C106.73146867 134.85873348 110.85188361 138.69033608 115.15356445 142.39868164 C117.76522558 144.66364069 120.28286517 147.01872476 122.8125 149.375 C128.35643623 154.48924171 134.09590338 159.30392315 140 164 C140.50692383 164.40653809 141.01384766 164.81307617 141.53613281 165.23193359 C163.8680832 183.13164061 187.34073486 200.00425194 212.1796875 214.2734375 C214.98928536 215.99344062 217.44865911 217.92257913 220 220 C194.3913376 220.14031947 168.78273303 220.24604436 143.17376328 220.31087303 C131.28237792 220.34177762 119.39123179 220.38389342 107.5 220.45263672 C97.13252735 220.51254246 86.76522799 220.55117382 76.39758706 220.56453097 C70.91069086 220.57233575 65.42429034 220.59060819 59.93755341 220.63438034 C54.76644482 220.67529776 49.5960331 220.68763043 44.42477798 220.67864609 C42.53341247 220.68028819 40.64202213 220.69210862 38.75079727 220.71523285 C27.05401736 220.85115925 17.52819722 220.2724782 8.09389877 212.41184044 C-1.26150304 202.65765447 -0.55670608 190.3542677 -0.45410156 177.78076172 C-0.45297194 175.83842492 -0.45360919 173.89608642 -0.45587158 171.95375061 C-0.45701516 166.70435889 -0.43356358 161.45533578 -0.40557575 156.20602942 C-0.38050258 150.71143832 -0.37821544 145.21683797 -0.37347412 139.72219849 C-0.36106172 129.32786398 -0.32826357 118.93369856 -0.28807616 108.53943837 C-0.24330443 96.70148703 -0.22135782 84.86352744 -0.20129442 73.02551246 C-0.15952944 48.68358138 -0.08921113 24.34180018 0 0 Z " fill="#FD415E" transform="translate(144,404)"/>
</svg>
